<svg xmlns="http://www.w3.org/2000/svg" xmlns:xlink="http://www.w3.org/1999/xlink" width="188" zoomAndPan="magnify" viewBox="0 0 141.75 240.749997" height="321" preserveAspectRatio="xMidYMid meet" version="1.0"><defs><filter x="0%" y="0%" width="100%" height="100%" id="05f52ffb92"><feColorMatrix values="0 0 0 0 1 0 0 0 0 1 0 0 0 0 1 0 0 0 1 0" color-interpolation-filters="sRGB"/></filter><clipPath id="d5f90861ce"><path d="M 0 0.0859375 L 115 0.0859375 L 115 105 L 0 105 Z M 0 0.0859375 " clip-rule="nonzero"/></clipPath><clipPath id="310feaadd1"><path d="M 0 23 L 32 23 L 32 174.53125 L 0 174.53125 Z M 0 23 " clip-rule="nonzero"/></clipPath><mask id="0c1a8abb78"><g filter="url(#05f52ffb92)"><rect x="-14.175" width="170.1" fill="#000000" y="-24.075" height="288.899996" fill-opacity="0.532"/></g></mask><clipPath id="d9facb400c"><rect x="0" width="70" y="0" height="66"/></clipPath><mask id="90ab83fabf"><g filter="url(#05f52ffb92)"><rect x="-14.175" width="170.1" fill="#000000" y="-24.075" height="288.899996" fill-opacity="0.642"/></g></mask><clipPath id="4d5be222c4"><rect x="0" width="38" y="0" height="52"/></clipPath><mask id="fe54fcb28f"><g filter="url(#05f52ffb92)"><rect x="-14.175" width="170.1" fill="#000000" y="-24.075" height="288.899996" fill-opacity="0.346"/></g></mask><clipPath id="94afd00c1c"><rect x="0" width="38" y="0" height="52"/></clipPath><clipPath id="6bf9e2570c"><path d="M 85 14 L 140.003906 14 L 140.003906 71 L 85 71 Z M 85 14 " clip-rule="nonzero"/></clipPath><mask id="bd71a68a65"><g filter="url(#05f52ffb92)"><rect x="-14.175" width="170.1" fill="#000000" y="-24.075" height="288.899996" fill-opacity="0.532"/></g></mask><clipPath id="2b696d3c2b"><rect x="0" width="56" y="0" height="57"/></clipPath><mask id="cf7e48274c"><g filter="url(#05f52ffb92)"><rect x="-14.175" width="170.1" fill="#000000" y="-24.075" height="288.899996" fill-opacity="0.532"/></g></mask><clipPath id="e7720d38be"><rect x="0" width="47" y="0" height="43"/></clipPath><mask id="58391d6cc1"><g filter="url(#05f52ffb92)"><rect x="-14.175" width="170.1" fill="#000000" y="-24.075" height="288.899996" fill-opacity="0.532"/></g></mask><clipPath id="848794440d"><rect x="0" width="25" y="0" height="19"/></clipPath></defs><g clip-path="url(#d5f90861ce)"><path fill="#f3d470" d="M 0 104.742188 L 0 0.183594 L 114.226562 0.183594 Z M 0 104.742188 " fill-opacity="1" fill-rule="nonzero"/></g><g clip-path="url(#310feaadd1)"><path fill="#ff9711" d="M -0.00390625 174.125 L 31.605469 143.855469 L 31.605469 23.855469 L -0.00390625 54.125 Z M -0.00390625 174.125 " fill-opacity="1" fill-rule="nonzero"/></g><g mask="url(#0c1a8abb78)"><g transform="matrix(1, 0, 0, 1, 39, 37)"><g clip-path="url(#d9facb400c)"><path fill="#f3d470" d="M 1.15625 60.648438 L 1.15625 1.292969 L 66 1.292969 Z M 1.15625 60.648438 " fill-opacity="1" fill-rule="nonzero"/></g></g></g><path fill="#ff9711" d="M 33.671875 95.488281 L 65.277344 65.21875 L 65.277344 50.449219 L 33.671875 80.71875 Z M 33.671875 95.488281 " fill-opacity="1" fill-rule="nonzero"/><g mask="url(#90ab83fabf)"><g transform="matrix(1, 0, 0, 1, 30, 69)"><g clip-path="url(#4d5be222c4)"><path fill="#ff9711" d="M 3.671875 49.859375 L 35.277344 19.589844 L 35.277344 4.820312 L 3.671875 35.089844 Z M 3.671875 49.859375 " fill-opacity="1" fill-rule="nonzero"/></g></g></g><g mask="url(#fe54fcb28f)"><g transform="matrix(1, 0, 0, 1, 30, 92)"><g clip-path="url(#94afd00c1c)"><path fill="#ff9711" d="M 3.671875 49.304688 L 35.277344 19.035156 L 35.277344 4.269531 L 3.671875 34.535156 Z M 3.671875 49.304688 " fill-opacity="1" fill-rule="nonzero"/></g></g></g><path fill="#ffcb11" d="M -0.00390625 154.449219 L 31.601562 124.183594 L 31.601562 109.414062 L -0.00390625 139.683594 Z M -0.00390625 154.449219 " fill-opacity="0.533" fill-rule="nonzero"/><g clip-path="url(#6bf9e2570c)"><g mask="url(#bd71a68a65)"><g transform="matrix(1, 0, 0, 1, 85, 14)"><g clip-path="url(#2b696d3c2b)"><path fill="#f3d470" d="M 2.003906 51.882812 L 2.003906 3.597656 L 54.753906 3.597656 Z M 2.003906 51.882812 " fill-opacity="1" fill-rule="nonzero"/></g></g></g></g><g mask="url(#cf7e48274c)"><g transform="matrix(1, 0, 0, 1, 39, 14)"><g clip-path="url(#e7720d38be)"><path fill="#ff9711" d="M 2.546875 39.171875 L 2.546875 2.316406 L 42.808594 2.316406 Z M 2.546875 39.171875 " fill-opacity="1" fill-rule="nonzero"/></g></g></g><g mask="url(#58391d6cc1)"><g transform="matrix(1, 0, 0, 1, 11, 74)"><g clip-path="url(#848794440d)"><path fill="#f3d470" d="M 3.683594 17.222656 L 3.683594 1.789062 L 20.546875 1.789062 Z M 3.683594 17.222656 " fill-opacity="1" fill-rule="nonzero"/></g></g></g></svg>